<svg xmlns="http://www.w3.org/2000/svg" width="216.664" height="57.452" viewBox="0 0 216.664 57.452">
  <g id="Apparent-Software" transform="translate(-360.1 -381.1)">
    <g id="Group_81456" data-name="Group 81456" transform="translate(432.574 391.771)">
      <g id="Group_81454" data-name="Group 81454" transform="translate(53.191 25.079)">
        <g id="Group_81453" data-name="Group 81453">
          <path id="Path_10128" data-name="Path 10128" d="M1056.1,591.526l.65-1.463a5.632,5.632,0,0,0,3.358,1.12c1.589,0,2.257-.56,2.257-1.318,0-2.185-6.031-.758-6.031-4.532,0-1.643,1.3-3.033,4.1-3.033a6.453,6.453,0,0,1,3.376.9l-.6,1.462a5.6,5.6,0,0,0-2.8-.794c-1.571,0-2.2.614-2.2,1.372,0,2.167,6.013.758,6.013,4.478,0,1.625-1.318,3.015-4.1,3.015A6.632,6.632,0,0,1,1056.1,591.526Z" transform="translate(-1056.1 -581.722)" fill="#41c5f2"/>
          <path id="Path_10129" data-name="Path 10129" d="M1126.2,599.954a4.129,4.129,0,1,1,4.117,3.972A3.885,3.885,0,0,1,1126.2,599.954Zm6.428,0a2.3,2.3,0,1,0-2.311,2.419A2.258,2.258,0,0,0,1132.628,599.954Z" transform="translate(-1113.543 -592.949)" fill="#41c5f2"/>
          <path id="Path_10130" data-name="Path 10130" d="M1198.133,581.826v.469h2.13v1.444h-2.076v6.229h-1.806V583.74H1195.1V582.3h1.282v-.506a2.507,2.507,0,0,1,2.763-2.69,2.925,2.925,0,0,1,1.643.415l-.505,1.372a1.859,1.859,0,0,0-.993-.325C1198.512,580.581,1198.133,581,1198.133,581.826Z" transform="translate(-1170.003 -579.1)" fill="#41c5f2"/>
          <path id="Path_10131" data-name="Path 10131" d="M1249.687,596.028a2.863,2.863,0,0,1-1.733.524,2.386,2.386,0,0,1-2.672-2.618v-3.719H1244v-1.444h1.282V587h1.806v1.769h2.076v1.444h-2.076V593.9c0,.758.379,1.156,1.065,1.156a1.615,1.615,0,0,0,1.011-.325Z" transform="translate(-1210.074 -585.574)" fill="#41c5f2"/>
          <path id="Path_10132" data-name="Path 10132" d="M1309.28,596.4l-2.853,7.746h-1.733l-2-5.344-2.022,5.344h-1.733L1296.1,596.4h1.715l2.04,5.705,2.13-5.705h1.517l2.094,5.742,2.094-5.742Z" transform="translate(-1252.767 -593.276)" fill="#41c5f2"/>
          <path id="Path_10133" data-name="Path 10133" d="M1397.941,599.286v4.532h-1.715v-.939a2.749,2.749,0,0,1-2.437,1.047c-1.77,0-2.889-.975-2.889-2.329,0-1.282.867-2.311,3.214-2.311h2v-.108c0-1.065-.632-1.679-1.932-1.679a3.779,3.779,0,0,0-2.347.776l-.7-1.318a5.487,5.487,0,0,1,3.286-.957C1396.641,596,1397.941,597.047,1397.941,599.286Zm-1.823,2.112v-.9h-1.878c-1.228,0-1.571.469-1.571,1.029,0,.65.56,1.065,1.481,1.065A1.945,1.945,0,0,0,1396.118,601.4Z" transform="translate(-1330.451 -592.949)" fill="#41c5f2"/>
          <path id="Path_10134" data-name="Path 10134" d="M1466.478,596v1.733a1.762,1.762,0,0,0-.415-.036,2.123,2.123,0,0,0-2.257,2.4v3.755H1462v-7.746h1.733v1.138A2.955,2.955,0,0,1,1466.478,596Z" transform="translate(-1388.713 -592.949)" fill="#41c5f2"/>
          <path id="Path_10135" data-name="Path 10135" d="M1518.508,600.532h-6.085a2.338,2.338,0,0,0,2.51,1.86,2.711,2.711,0,0,0,2.094-.849l.975,1.119a3.934,3.934,0,0,1-3.124,1.264c-2.6,0-4.279-1.661-4.279-3.972a3.846,3.846,0,0,1,4.008-3.954,3.787,3.787,0,0,1,3.918,4.008C1518.526,600.135,1518.508,600.351,1518.508,600.532Zm-6.1-1.21h4.387a2.093,2.093,0,0,0-2.185-1.878A2.147,2.147,0,0,0,1512.406,599.322Z" transform="translate(-1428.538 -592.949)" fill="#41c5f2"/>
        </g>
      </g>
      <g id="Group_81455" data-name="Group 81455" transform="translate(0 0)">
        <path id="Path_10136" data-name="Path 10136" d="M777.966,456.215H767.549l-2.058,4.821H761.5l9.371-20.836h3.81l9.407,20.836h-4.044Zm-1.282-3.033-3.936-9.1-3.9,9.1Z" transform="translate(-761.5 -440.2)" fill="#0491d7"/>
        <path id="Path_10137" data-name="Path 10137" d="M916.082,474.725a7.748,7.748,0,0,1-8.071,8.161,6.531,6.531,0,0,1-5.092-2.149v7.71H899.2V466.781h3.539v2.076a6.539,6.539,0,0,1,5.272-2.257A7.729,7.729,0,0,1,916.082,474.725Zm-3.773,0a4.719,4.719,0,1,0-4.694,4.965A4.617,4.617,0,0,0,912.308,474.725Z" transform="translate(-874.338 -461.833)" fill="#0491d7"/>
        <path id="Path_10138" data-name="Path 10138" d="M1029.182,474.725a7.748,7.748,0,0,1-8.071,8.161,6.531,6.531,0,0,1-5.092-2.149v7.71H1012.3V466.781h3.539v2.076a6.54,6.54,0,0,1,5.272-2.257A7.739,7.739,0,0,1,1029.182,474.725Zm-3.792,0a4.719,4.719,0,1,0-4.694,4.965A4.617,4.617,0,0,0,1025.39,474.725Z" transform="translate(-967.017 -461.833)" fill="#0491d7"/>
        <path id="Path_10139" data-name="Path 10139" d="M1132.426,473.353v9.317h-3.5v-1.932c-.885,1.372-2.618,2.149-5,2.149-3.629,0-5.922-1.986-5.922-4.767,0-2.654,1.787-4.731,6.608-4.731h4.1v-.235c0-2.167-1.318-3.449-3.954-3.449a7.906,7.906,0,0,0-4.821,1.571l-1.463-2.708a11.119,11.119,0,0,1,6.717-1.968C1129.772,466.6,1132.426,468.767,1132.426,473.353Zm-3.719,4.351v-1.842h-3.846c-2.528,0-3.214.957-3.214,2.112,0,1.336,1.137,2.2,3.033,2.2A4.106,4.106,0,0,0,1128.707,477.7Z" transform="translate(-1053.633 -461.833)" fill="#0491d7"/>
        <path id="Path_10140" data-name="Path 10140" d="M1233.49,466.6v3.539a5.237,5.237,0,0,0-.867-.09c-2.835,0-4.6,1.661-4.6,4.911v7.71H1224.3V466.781h3.539v2.329C1228.9,467.431,1230.836,466.6,1233.49,466.6Z" transform="translate(-1140.74 -461.833)" fill="#0491d7"/>
        <path id="Path_10141" data-name="Path 10141" d="M1300.777,475.835h-12.458c.451,2.329,2.383,3.81,5.146,3.81a5.66,5.66,0,0,0,4.315-1.733l1.986,2.293a8.047,8.047,0,0,1-6.392,2.582c-5.326,0-8.775-3.43-8.775-8.161a7.906,7.906,0,0,1,8.215-8.125c4.64,0,8.035,3.25,8.035,8.215C1300.85,475.022,1300.814,475.474,1300.777,475.835Zm-12.494-2.474h9.01a4.319,4.319,0,0,0-4.5-3.864A4.381,4.381,0,0,0,1288.283,473.361Z" transform="translate(-1190.152 -461.751)" fill="#0491d7"/>
        <path id="Path_10142" data-name="Path 10142" d="M1409.954,473.569v9.1h-3.719v-8.63c0-2.835-1.39-4.189-3.774-4.189-2.654,0-4.442,1.607-4.442,4.785v8.035H1394.3V466.781h3.539v2.058a6.915,6.915,0,0,1,5.471-2.239C1407.137,466.6,1409.954,468.767,1409.954,473.569Z" transform="translate(-1280.046 -461.833)" fill="#0491d7"/>
        <path id="Path_10143" data-name="Path 10143" d="M1507.164,466.561a5.793,5.793,0,0,1-3.575,1.065c-3.485,0-5.471-1.842-5.471-5.362v-7.655H1495.5v-2.979h2.618V448h3.719v3.629h4.261v2.979h-4.261v7.565c0,1.553.776,2.383,2.2,2.383a3.387,3.387,0,0,0,2.076-.65Z" transform="translate(-1362.974 -446.592)" fill="#0491d7"/>
      </g>
    </g>
    <g id="Group_81458" data-name="Group 81458" transform="translate(360.1 381.1)">
      <rect id="Rectangle_1_00000076574790203340070580000009655601266041333136_" width="19.157" height="19.157" transform="translate(0 38.295)" fill="#8ed7f7"/>
      <rect id="Rectangle_2_00000149340181876798672200000001527097014253152918_" width="19.157" height="19.157" transform="translate(19.157 38.295)" fill="#41c5f2"/>
      <rect id="Rectangle_3_00000034811130637839909300000001493549384274910377_" width="19.157" height="19.157" transform="translate(38.295 38.295)" fill="#0491d7"/>
      <rect id="Rectangle_4_00000065752864352181834030000016735199683218538639_" width="11.808" height="11.808" transform="translate(19.157 3.376)" fill="#d8edf8"/>
      <rect id="Rectangle_5_00000064331418831757461230000000641607543486789793_" width="19.157" height="19.157" transform="translate(19.157 19.139)" fill="#8ed7f7"/>
      <rect id="Rectangle_6_00000053541578092899721460000012410468501393082250_" width="19.157" height="19.157" transform="translate(38.295 19.139)" fill="#41c5f2"/>
      <rect id="Rectangle_7_00000182503529326728071930000003963199997197098673_" width="11.808" height="11.808" transform="translate(3.683 19.139)" fill="#d8edf8"/>
      <rect id="Rectangle_8_00000024702780404659075880000008154716651541915557_" width="8.161" height="8.161" transform="translate(0)" fill="#d8edf8"/>
      <rect id="Rectangle_9_00000089547790946859766900000005821229365294232731_" width="19.157" height="19.157" transform="translate(38.295)" fill="#8ed7f7"/>
      <g id="Group_81457" data-name="Group 81457" transform="translate(22.804 28.582)">
        <path id="Path_10144" data-name="Path 10144" d="M486.4,539.671l.686-.271C486.869,539.49,486.635,539.581,486.4,539.671Z" transform="translate(-486.4 -539.4)" fill="#f69321"/>
      </g>
    </g>
  </g>
</svg>
